<svg xmlns="http://www.w3.org/2000/svg" xmlns:xlink="http://www.w3.org/1999/xlink" width="1920" height="1080" viewBox="0 0 1920 1080"><defs><style>.a{clip-path:url(#h);}.b{fill:#477998;}.c{fill:#fff;}.d{fill:#e8ecf6;}.e{filter:url(#e);}.f{filter:url(#c);}.g{filter:url(#a);}</style><filter id="a" x="1720" y="790" width="200" height="250" filterUnits="userSpaceOnUse"><feOffset input="SourceAlpha"/><feGaussianBlur result="b"/><feFlood flood-opacity="0.051"/><feComposite operator="in" in2="b"/></filter><filter id="c" x="1241" y="-0.001" width="500" height="275.001" filterUnits="userSpaceOnUse"><feOffset input="SourceAlpha"/><feGaussianBlur result="d"/><feFlood flood-opacity="0.051"/><feComposite operator="in" in2="d"/></filter><filter id="e" x="-0.001" y="422" width="200.001" height="500" filterUnits="userSpaceOnUse"><feOffset input="SourceAlpha"/><feGaussianBlur result="f"/><feFlood flood-color="#555" flood-opacity="0.161"/><feComposite operator="in" in2="f"/></filter><clipPath id="h"><rect width="1920" height="1080"/></clipPath></defs><g id="g" class="a"><rect class="d" width="1920" height="1080"/><rect class="b" width="960" height="1080" transform="translate(960)"/><g class="g" transform="matrix(1, 0, 0, 1, 0, 0)"><path class="c" d="M30,250H0V90A89.58,89.58,0,0,1,15.371,39.68a90.264,90.264,0,0,1,39.6-32.608A89.435,89.435,0,0,1,90,0H200V30H105a75.086,75.086,0,0,0-75,75Z" transform="translate(1720 790)"/></g><g class="f" transform="matrix(1, 0, 0, 1, 0, 0)"><path class="c" d="M410,275H90A89.58,89.58,0,0,1,39.68,259.63a90.263,90.263,0,0,1-32.608-39.6A89.436,89.436,0,0,1,0,185V0H33V171a75.085,75.085,0,0,0,75,75H393a75.085,75.085,0,0,0,75-75V0h32V185a89.578,89.578,0,0,1-15.371,50.32,90.264,90.264,0,0,1-39.6,32.608A89.435,89.435,0,0,1,410,275Z" transform="translate(1241)"/></g><g class="e" transform="matrix(1, 0, 0, 1, 0, 0)"><path class="c" d="M110,500H0V464H87a75.085,75.085,0,0,0,75-75V110A75.085,75.085,0,0,0,87,35H0V0H110a89.579,89.579,0,0,1,50.32,15.371,90.264,90.264,0,0,1,32.607,39.6A89.437,89.437,0,0,1,200,90V410a89.579,89.579,0,0,1-15.371,50.32,90.264,90.264,0,0,1-39.6,32.608A89.436,89.436,0,0,1,110,500Z" transform="translate(0 422)"/></g></g></svg>